<svg xmlns="http://www.w3.org/2000/svg" width="241" height="158" viewBox="0 0 241 158">
  <g fill="none" fill-rule="evenodd">
    <path fill="#FFF" d="M232.087208 108L44.9127922 108C43.8563667 108 43 107.212191 43 106.23886L43 105.76114C43 104.788471 43.8563667 104 44.9127922 104L232.087208 104C233.143633 104 234 104.788471 234 105.76114L234 106.23886C234 107.212191 233.143633 108 232.087208 108M238.087215 121L50.9135046 121C49.8570831 121 49 120.211659 49 119.239152L49 118.760848C49 117.788341 49.8570831 117 50.9135046 117L238.087215 117C239.143637 117 240 117.788341 240 118.760848L240 119.239152C240 120.211659 239.143637 121 238.087215 121"/>
    <path fill="#218F69" d="M18,109 C15.2384615,109 13,106.761538 13,104 C13,101.238462 15.2384615,99 18,99 C20.7615385,99 23,101.238462 23,104 C23,106.761538 20.7615385,109 18,109 M0,103.684211 C0,114.8 7.77166606,118.726337 10.8000002,122.378948 C13.8283343,126.031558 16.2961717,129.934148 16.8778288,133.071327 C16.9776003,133.608422 17.4445717,134 18,134 C18.5554288,134 19.0224003,133.608422 19.1221717,133.071327 C19.7038289,129.934148 22.0063066,126.232197 25.2000004,122.378948 C28.3936942,118.525699 36,114.8 36,103.684211 C36,93.9174738 27.9411433,86 18,86 C8.05885726,86 0,93.9174738 0,103.684211 Z"/>
    <path fill="#F2F6F8" d="M109,33 C106.790769,33 105,31.2092308 105,29 C105,26.7907692 106.790769,25 109,25 C111.209231,25 113,26.7907692 113,29 C113,31.2092308 111.209231,33 109,33 M95,28.6315792 C95,37.2000003 101.044629,40.2265518 103.4,43.0421057 C105.755371,45.8576596 107.6748,48.8659058 108.1272,51.2841479 C108.2048,51.6981584 108.568,52 109,52 C109.432,52 109.7952,51.6981584 109.8728,51.2841479 C110.3252,48.8659058 112.116016,46.0123184 114.6,43.0421057 C117.083984,40.071893 123,37.2000003 123,28.6315792 C123,21.1030527 116.732,15 109,15 C101.268,15 95,21.1030527 95,28.6315792 Z"/>
    <g transform="translate(41 116)">
      <polygon fill="#F5C181" points="32 42 64 42 64 16.148 48 5 32 16.148"/>
      <polygon fill="#00403A" points="32 16 48 5.043 16.156 5 0 16"/>
      <polygon fill="#FFF" points="0 42 32 42 32 16 0 16"/>
      <polygon fill="#FFF" points="46 30 50 30 50 26 46 26"/>
      <polygon fill="#00403A" points="20 30 24 30 24 26 20 26"/>
      <polygon fill="#00403A" points="7 30 11 30 11 26 7 26"/>
      <polygon fill="#00403A" points="27 6 33 6 33 0 27 0"/>
    </g>
    <polygon fill="#F5C181" points="220 78 252 78 252 52.147 236 41 220 52.147"/>
    <polygon fill="#00403A" points="220 52 236 41.043 204.156 41 188 52"/>
    <polygon fill="#FFF" points="188 78 220 78 220 52 188 52"/>
    <polygon fill="#FFF" points="234 66 238 66 238 62 234 62"/>
    <polygon fill="#00403A" points="214 42 220 42 220 36 214 36"/>
    <polygon fill="#FFF" points="168 158 131 158 131 65.21 149.5 52 168 65.21"/>
    <path fill="#F5C181" d="M135.5,141.097561 C133.495658,141.097561 131.870968,139.476041 131.870968,137.47561 C131.870968,135.475178 133.495658,133.853659 135.5,133.853659 C137.504342,133.853659 139.129032,135.475178 139.129032,137.47561 C139.129032,139.476041 137.504342,141.097561 135.5,141.097561 M123,137.157895 C123,144.8 128.39699,147.499357 130.5,150.010527 C132.60301,152.521696 134.316786,155.204727 134.720714,157.361537 C134.79,157.73079 135.114286,158 135.5,158 C135.885714,158 136.21,157.73079 136.279286,157.361537 C136.683214,155.204727 138.282157,152.659635 140.5,150.010527 C142.717843,147.361418 148,144.8 148,137.157895 C148,130.443263 142.403572,125 135.5,125 C128.596429,125 123,130.443263 123,137.157895 Z"/>
    <polygon fill="#00403A" points="168.667 65 150 52.051 187.152 52 206 65"/>
    <polygon fill="#218F69" points="169 158 206 158 206 65 169 65"/>
    <polygon fill="#00403A" points="147 82 152 82 152 77 147 77"/>
    <polygon fill="#00403A" points="147 104 152 104 152 99 147 99"/>
    <polygon fill="#FFF" points="178 82 183 82 183 77 178 77"/>
    <polygon fill="#FFF" points="193 82 198 82 198 77 193 77"/>
    <polygon fill="#FFF" points="178 104 183 104 183 99 178 99"/>
    <polygon fill="#FFF" points="193 104 198 104 198 99 193 99"/>
    <polygon fill="#FFF" points="222 158 185 158 185 127.257 203.5 114 222 127.257"/>
    <polygon fill="#00403A" points="222.667 127 204 114.051 241.152 114 260 127"/>
    <polygon fill="#218F69" points="223 158 260 158 260 127 223 127"/>
    <polygon fill="#00403A" points="201 144 206 144 206 139 201 139"/>
    <polygon fill="#FFF" points="231 144 236 144 236 139 231 139"/>
  </g>
</svg>
