<svg xmlns="http://www.w3.org/2000/svg" viewBox="0 0 1192 173"><g fill="none" fill-rule="evenodd"><g transform="translate(.5)"><polygon fill="#1D5FD1" points="759.72 61 804.114 61 804.114 24.656 781.916 8.984 759.72 24.656"/><polygon fill="#000" points="759.72 24.656 781.916 8.984 737.74 8.924 715.327 24.656"/><polygon fill="#FFF" points="715.327 61 759.72 61 759.72 24.656 715.327 24.656"/><polygon fill="#FFF" points="779.355 44.781 785.331 44.781 785.331 38.804 779.355 38.804"/><polygon fill="#1D5FD1" points="743.499 44.781 749.476 44.781 749.476 38.804 743.499 38.804"/><polygon fill="#1D5FD1" points="725.571 44.781 731.547 44.781 731.547 38.804 725.571 38.804"/><polygon fill="#4750DD" points="44.393 135.695 44.393 172.039 88.786 172.039 88.786 135.695 66.59 120.023"/><polygon fill="#000" points="44.393 135.695 66.59 120.023 22.413 119.962 0 135.695"/><polygon fill="#FFF" points="0 172.039 44.393 172.039 44.393 135.695 0 135.695"/><polygon fill="#FFF" points="64.029 155.819 70.005 155.819 70.005 149.842 64.029 149.842"/><polygon fill="#1D5FD1" points="28.172 155.819 34.148 155.819 34.148 149.842 28.172 149.842"/><polygon fill="#1D5FD1" points="10.245 155.819 16.221 155.819 16.221 149.842 10.245 149.842"/><polygon fill="#000" points="36.771 121.5 44.771 121.5 44.771 113.5 36.771 113.5"/><polygon fill="#FFF" points="559.981 43.072 559.981 172 611.981 172 611.981 43.072 585.981 24.715"/><polygon fill="#000" points="611.981 43.072 585.981 24.715 637.727 24.643 663.981 43.072"/><polygon fill="#0496FF" points="611.981 172 663.98 172 663.98 43.072 611.981 43.072"/><polygon fill="#1D5FD1" points="581.98 66.644 588.98 66.644 588.98 59.644 581.98 59.644"/><polygon fill="#1D5FD1" points="581.98 96.644 588.98 96.644 588.98 89.644 581.98 89.644"/><polygon fill="#FFF" points="623.98 66.644 630.98 66.644 630.98 59.644 623.98 59.644"/><polygon fill="#FFF" points="644.98 66.644 651.98 66.644 651.98 59.644 644.98 59.644"/><polygon fill="#FFF" points="623.98 96.644 630.98 96.644 630.98 89.644 623.98 89.644"/><polygon fill="#FFF" points="644.98 96.644 651.98 96.644 651.98 89.644 644.98 89.644"/><polygon fill="#FFF" points="482.98 129.429 482.98 172 534.98 172 534.98 129.429 508.98 111.073"/><polygon fill="#000" points="534.981 129.429 508.981 111.073 560.727 111 586.981 129.429"/><polygon fill="#1D5FD1" points="534.98 172 586.98 172 586.98 129.429 534.98 129.429"/><polygon fill="#1D5FD1" points="504.98 153 511.98 153 511.98 146 504.98 146"/><polygon fill="#FFF" points="546.98 153 553.98 153 553.98 146 546.98 146"/><polygon fill="#FFF" points="567.98 153 574.98 153 574.98 146 567.98 146"/><polygon fill="#0496FF" points="251.161 61 303.161 61 303.161 18.429 277.161 .072 251.161 18.429"/><polygon fill="#FFF" points="273.661 42 280.661 42 280.661 35 273.661 35"/><polygon fill="#000" points="225.414 0 199.161 18.428 251.161 18.428 277.161 .072"/><polygon fill="#FFF" points="199.161 61 251.161 61 251.161 18.429 199.161 18.429"/><polygon fill="#1D5FD1" points="232.161 42 239.161 42 239.161 35 232.161 35"/><polygon fill="#1D5FD1" points="211.161 42 218.161 42 218.161 35 211.161 35"/><polygon fill="#FFF" points="121.512 36.858 121.512 172 173.512 172 173.512 36.858 147.512 18.5"/><polygon fill="#000" points="173.512 36.857 147.512 18.5 199.259 18.428 225.512 36.857"/><polygon fill="#4750DD" points="173.512 172 225.512 172 225.512 36.858 173.512 36.858"/><polygon fill="#1D5FD1" points="143.512 60.429 150.512 60.429 150.512 53.429 143.512 53.429"/><polygon fill="#1D5FD1" points="143.512 90.429 150.512 90.429 150.512 83.429 143.512 83.429"/><polygon fill="#FFF" points="185.512 60.429 192.512 60.429 192.512 53.429 185.512 53.429"/><polygon fill="#FFF" points="206.512 60.429 213.512 60.429 213.512 53.429 206.512 53.429"/><polygon fill="#FFF" points="185.512 90.429 192.512 90.429 192.512 83.429 185.512 83.429"/><polygon fill="#FFF" points="206.512 90.429 213.512 90.429 213.512 83.429 206.512 83.429"/><polygon fill="#FFF" points="199.512 129.429 199.512 172 251.512 172 251.512 129.429 225.512 111.073"/><polygon fill="#000" points="251.512 129.429 225.512 111.073 277.259 111 303.512 129.429"/><polygon fill="#1D5FD1" points="251.512 172 303.512 172 303.512 129.429 251.512 129.429"/><polygon fill="#1D5FD1" points="221.512 153 228.512 153 228.512 146 221.512 146"/><polygon fill="#FFF" points="263.512 153 270.512 153 270.512 146 263.512 146"/><polygon fill="#FFF" points="284.512 153 291.512 153 291.512 146 284.512 146"/><polygon fill="#FFF" points="715.72 101.428 715.72 172 767.719 172 767.719 101.428 741.719 83.072"/><polygon fill="#000" points="767.72 101.429 741.72 83.073 777.467 83 803.72 101.429"/><polygon fill="#000" points="759.72 85 767.72 85 767.72 77 759.72 77"/><polygon fill="#1D5FD1" points="767.719 172 803.719 172 803.719 101.428 767.719 101.428"/><polygon fill="#1D5FD1" points="737.72 125 744.72 125 744.72 118 737.72 118"/><polygon fill="#1D5FD1" points="737.72 155 744.72 155 744.72 148 737.72 148"/><polygon fill="#FFF" points="782.22 125 789.22 125 789.22 118 782.22 118"/><polygon fill="#FFF" points="782.22 155 789.22 155 789.22 148 782.22 148"/><polygon fill="#FFF" points="368.845 36.858 368.845 172 420.845 172 420.845 36.858 394.845 18.5"/><polygon fill="#000" points="420.845 36.857 394.845 18.5 430.592 18.428 456.845 36.857"/><polygon fill="#000" points="412.845 20.429 420.845 20.429 420.845 12.429 412.845 12.429"/><polygon fill="#1D5FD1" points="420.845 172 456.845 172 456.845 36.858 420.845 36.858"/><polygon fill="#1D5FD1" points="390.845 60.429 397.845 60.429 397.845 53.429 390.845 53.429"/><polygon fill="#FFF" points="435.345 60.429 442.345 60.429 442.345 53.429 435.345 53.429"/><polygon fill="#FFF" points="435.345 90.429 442.345 90.429 442.345 83.429 435.345 83.429"/><path fill="#6AE28C" d="M685.4961,143.4443 C685.4961,150.5663 679.7231,156.3403 672.6001,156.3403 C665.4781,156.3403 659.7051,150.5663 659.7051,143.4443 C659.7051,136.3223 665.4781,130.5483 672.6001,130.5483 C679.7231,130.5483 685.4961,136.3223 685.4961,143.4443"/><polygon fill="#6AE28C" points="671.791 172 673.41 172 673.41 143.444 671.791 143.444"/><path fill="#EBF4FF" d="M888.7197,32.578 C888.7197,39.7 882.9467,45.473 875.8237,45.473 C868.7017,45.473 862.9287,39.7 862.9287,32.578 C862.9287,25.456 868.7017,19.682 875.8237,19.682 C882.9467,19.682 888.7197,25.456 888.7197,32.578"/><polygon fill="#EBF4FF" points="875.015 61.134 876.634 61.134 876.634 32.578 875.015 32.578"/><path fill="#EBF4FF" d="M922.6074,32.578 C922.6074,39.7 916.8344,45.473 909.7114,45.473 C902.5894,45.473 896.8164,39.7 896.8164,32.578 C896.8164,25.456 902.5894,19.682 909.7114,19.682 C916.8344,19.682 922.6074,25.456 922.6074,32.578"/><polygon fill="#EBF4FF" points="908.902 61.134 910.521 61.134 910.521 32.578 908.902 32.578"/><path fill="#EBF4FF" d="M990.083,32.578 C990.083,39.7 984.31,45.473 977.187,45.473 C970.065,45.473 964.292,39.7 964.292,32.578 C964.292,25.456 970.065,19.682 977.187,19.682 C984.31,19.682 990.083,25.456 990.083,32.578"/><polygon fill="#EBF4FF" points="976.378 61.134 977.997 61.134 977.997 32.578 976.378 32.578"/><path fill="#6AE28C" d="M159.0562,143.4443 C159.0562,150.5663 153.2832,156.3403 146.1602,156.3403 C139.0382,156.3403 133.2652,150.5663 133.2652,143.4443 C133.2652,136.3223 139.0382,130.5483 146.1602,130.5483 C153.2832,130.5483 159.0562,136.3223 159.0562,143.4443"/><polygon fill="#6AE28C" points="145.351 172 146.97 172 146.97 143.444 145.351 143.444"/><path fill="#EBF4FF" d="M517.876,32.578 C517.876,39.7 512.103,45.473 504.98,45.473 C497.858,45.473 492.085,39.7 492.085,32.578 C492.085,25.456 497.858,19.682 504.98,19.682 C512.103,19.682 517.876,25.456 517.876,32.578"/><polygon fill="#EBF4FF" points="504.171 61.134 505.79 61.134 505.79 32.578 504.171 32.578"/><polygon fill="#FFF" points="369.845 172 317.845 172 317.845 91.429 343.845 73.072 369.845 91.429"/><polygon fill="#000" points="369.845 91.429 343.845 73.073 379.592 73 405.845 91.429"/><polygon fill="#0496FF" points="369.845 172 405.845 172 405.845 91.429 369.845 91.429"/><polygon fill="#1D5FD1" points="339.845 115 346.845 115 346.845 108 339.845 108"/><polygon fill="#1D5FD1" points="339.845 145 346.845 145 346.845 138 339.845 138"/><polygon fill="#FFF" points="384.345 115 391.345 115 391.345 108 384.345 108"/><polygon fill="#FFF" points="384.345 145 391.345 145 391.345 138 384.345 138"/><path fill="#FFF" d="M1148.2041 82.83L811.9631 82.83C810.2951 82.83 808.9431 81.478 808.9431 79.811 808.9431 78.144 810.2951 76.793 811.9631 76.793L1148.2041 76.793C1149.8711 76.793 1151.2231 78.144 1151.2231 79.811 1151.2231 81.478 1149.8711 82.83 1148.2041 82.83M1158.2041 101.9052L821.9631 101.9052C820.2951 101.9052 818.9431 100.5532 818.9431 98.8862 818.9431 97.2192 820.2951 95.8682 821.9631 95.8682L1158.2041 95.8682C1159.8711 95.8682 1161.2231 97.2192 1161.2231 98.8862 1161.2231 100.5532 1159.8711 101.9052 1158.2041 101.9052M1168.2041 120.9804L831.9631 120.9804C830.2951 120.9804 828.9431 119.6284 828.9431 117.9614 828.9431 116.2944 830.2951 114.9434 831.9631 114.9434L1168.2041 114.9434C1169.8711 114.9434 1171.2231 116.2944 1171.2231 117.9614 1171.2231 119.6284 1169.8711 120.9804 1168.2041 120.9804M1178.2041 140.0566L841.9631 140.0566C840.2951 140.0566 838.9431 138.7046 838.9431 137.0366 838.9431 135.3696 840.2951 134.0186 841.9631 134.0186L1178.2041 134.0186C1179.8711 134.0186 1181.2231 135.3696 1181.2231 137.0366 1181.2231 138.7046 1179.8711 140.0566 1178.2041 140.0566M1188.2041 159.1318L851.9631 159.1318C850.2951 159.1318 848.9431 157.7798 848.9431 156.1128 848.9431 154.4448 850.2951 153.0938 851.9631 153.0938L1188.2041 153.0938C1189.8711 153.0938 1191.2231 154.4448 1191.2231 156.1128 1191.2231 157.7798 1189.8711 159.1318 1188.2041 159.1318"/><polygon fill="#FFF" points="891.216 172 839.216 172 839.216 107.301 865.216 88.943 891.216 107.301"/><polygon fill="#000" points="891.216 107.301 865.216 88.944 927.956 88.872 954.209 107.301"/><polygon fill="#0496FF" points="891.216 172 954.209 172 954.209 107.301 891.216 107.301"/><polygon fill="#1D5FD1" points="861.216 130.872 868.216 130.872 868.216 123.872 861.216 123.872"/><polygon fill="#FFF" points="908.712 130.872 915.712 130.872 915.712 123.872 908.712 123.872"/><polygon fill="#FFF" points="929.712 130.872 936.712 130.872 936.712 123.872 929.712 123.872"/><polygon fill="#1D5FD1" points="1075.669 172.039 1120.063 172.039 1120.063 135.695 1097.865 120.023 1075.669 135.695"/><polygon fill="#000" points="1075.669 135.695 1097.865 120.023 1053.689 119.962 1031.276 135.695"/><polygon fill="#FFF" points="1031.276 172.039 1075.669 172.039 1075.669 135.695 1031.276 135.695"/><polygon fill="#FFF" points="1095.305 155.819 1101.281 155.819 1101.281 149.842 1095.305 149.842"/><polygon fill="#1D5FD1" points="1059.448 155.819 1065.425 155.819 1065.425 149.842 1059.448 149.842"/><polygon fill="#1D5FD1" points="1041.521 155.819 1047.497 155.819 1047.497 149.842 1041.521 149.842"/><polygon fill="#FFF" points="1075.851 61 1042.328 61 1042.328 26.452 1059.089 13.617 1075.851 26.452"/><polygon fill="#000" points="1075.851 26.452 1059.089 13.617 1069.795 13.571 1086.72 26.452"/><polygon fill="#0496FF" points="1075.851 61 1086.72 61 1086.72 26.452 1075.851 26.452"/></g><g fill="#1D5FD1" class="windmill" transform="translate(1037.168 8.71)"><polygon points="26.313 22.42 22.42 18.527 40.948 0 44.84 3.893"/><polygon points="3.893 44.84 0 40.947 18.528 22.42 22.42 26.313"/><polygon points="22.42 26.313 26.313 22.42 44.84 40.948 40.947 44.84"/><polygon points="0 3.893 3.893 0 22.42 18.528 18.527 22.42"/></g></g></svg>