<svg xmlns="http://www.w3.org/2000/svg" width="67" height="67" viewBox="0 0 67 67">
  <g fill="none" fill-rule="evenodd">
    <circle cx="33.5" cy="33.5" r="33.149" stroke="#EAEAEA" stroke-width=".702"/>
    <g fill="#4258ED" transform="translate(11.167 10.369)">
      <polygon points="20.534 5.964 22.404 4.562 24.273 5.964 23.561 3.696 25.459 2.294 23.12 2.294 22.404 0 21.687 2.297 19.348 2.294 21.246 3.696"/>
      <polygon points="10.861 8.634 12.731 7.233 14.598 8.634 13.888 6.367 15.785 4.966 13.445 4.966 12.729 2.667 12.013 4.968 9.674 4.966 11.571 6.367"/>
      <polygon points="5.653 9.959 4.937 12.258 2.598 12.256 4.495 13.658 3.783 15.924 5.653 14.523 7.522 15.924 6.811 13.658 8.708 12.256 6.369 12.256"/>
      <polygon points="3.057 24.452 4.925 25.853 4.215 23.587 6.111 22.185 3.773 22.185 3.057 19.888 2.341 22.19 0 22.185 1.899 23.587 1.188 25.853"/>
      <polygon points="6.369 32.144 5.653 29.846 4.937 32.147 2.598 32.144 4.495 33.546 3.784 35.813 5.653 34.408 7.522 35.813 6.811 33.546 8.708 32.144"/>
      <polygon points="13.46 39.432 12.744 37.136 12.029 39.435 9.688 39.432 11.586 40.834 10.876 43.101 12.745 41.698 14.613 43.101 13.903 40.834 15.8 39.432"/>
      <polygon points="23.121 42.072 22.404 39.775 21.689 42.075 19.349 42.072 21.246 43.475 20.536 45.742 22.405 44.34 24.273 45.742 23.562 43.475 25.461 42.072"/>
      <polygon points="32.781 39.432 32.066 37.136 31.349 39.435 29.011 39.432 30.907 40.834 30.197 43.101 32.066 41.698 33.935 43.101 33.223 40.834 35.121 39.432"/>
      <polygon points="39.874 32.144 39.157 29.846 38.439 32.147 36.101 32.144 38 33.546 37.288 35.813 39.157 34.408 41.026 35.813 40.313 33.546 42.212 32.144"/>
      <polygon points="44.781 22.157 42.441 22.157 41.724 19.86 41.009 22.159 38.669 22.157 40.568 23.559 39.858 25.825 41.724 24.422 43.593 25.825 42.884 23.559"/>
      <polygon points="37.288 15.895 39.157 14.493 41.026 15.895 40.314 13.628 42.211 12.229 39.874 12.229 39.157 9.931 38.439 12.231 36.102 12.229 38 13.628"/>
      <polygon points="32.093 2.67 31.377 4.971 29.038 4.965 30.933 6.37 30.224 8.637 32.095 7.232 33.963 8.637 33.252 6.37 35.15 4.965 32.808 4.965"/>
    </g>
  </g>
</svg>
