<?xml version="1.0" encoding="UTF-8"?>
<svg width="522px" height="103px" viewBox="0 0 522 103" version="1.1" xmlns="http://www.w3.org/2000/svg" xmlns:xlink="http://www.w3.org/1999/xlink">
    <!-- Generator: Sketch 53.2 (72643) - https://sketchapp.com -->

    <g id="Page-1" stroke="none" stroke-width="1" fill="none" fill-rule="evenodd">
        <g id="illu_two-years_city" transform="translate(-16.000000, -9.000000)">

                <g transform="translate(16.205000, 9.623000)" id="Path">
                    <polygon fill="#4750DD" points="29.424 79.849 29.424 103.378 58.2 103.378 58.2 79.849 43.813 69.703"></polygon>
                    <polygon fill="#000000" points="29.424 79.849 43.813 69.703 15.177 69.663 0.648 79.849"></polygon>
                    <polygon fill="#FFFFFF" points="0.648 103.378 29.424 103.378 29.424 79.849 0.648 79.849"></polygon>
                    <polygon fill="#FFFFFF" points="42.152 92.877 46.026 92.877 46.026 89.007 42.152 89.007"></polygon>
                    <polygon fill="#1D5FD1" points="18.91 92.877 22.783 92.877 22.783 89.007 18.91 89.007"></polygon>
                    <polygon fill="#1D5FD1" points="7.289 92.877 11.163 92.877 11.163 89.007 7.289 89.007"></polygon>
                    <polygon fill="#000000" points="24.484 70.659 29.669 70.659 29.669 65.48 24.484 65.48"></polygon>
                    <polygon fill="#FFFFFF" points="363.634 19.885 363.634 103.353 397.341 103.353 397.341 19.885 380.487 8.001"></polygon>
                    <polygon fill="#000000" points="397.341 19.885 380.487 8.001 414.03 7.954 431.047 19.885"></polygon>
                    <polygon fill="#0496FF" points="397.341 103.352 431.047 103.352 431.047 19.885 397.341 19.885"></polygon>
                    <polygon fill="#1D5FD1" points="377.894 35.145 382.431 35.145 382.431 30.613 377.894 30.613"></polygon>
                    <polygon fill="#1D5FD1" points="377.894 54.567 382.431 54.567 382.431 50.035 377.894 50.035"></polygon>
                    <polygon fill="#FFFFFF" points="405.119 35.145 409.656 35.145 409.656 30.613 405.119 30.613"></polygon>
                    <polygon fill="#FFFFFF" points="418.731 35.145 423.269 35.145 423.269 30.613 418.731 30.613"></polygon>
                    <polygon fill="#FFFFFF" points="405.119 54.567 409.656 54.567 409.656 50.035 405.119 50.035"></polygon>
                    <polygon fill="#FFFFFF" points="418.731 54.567 423.269 54.567 423.269 50.035 418.731 50.035"></polygon>
                    <polygon fill="#FFFFFF" points="313.721 75.792 313.721 103.353 347.428 103.353 347.428 75.792 330.575 63.909"></polygon>
                    <polygon fill="#000000" points="347.428 75.792 330.575 63.908 364.118 63.861 381.135 75.792"></polygon>
                    <polygon fill="#1D5FD1" points="347.428 103.352 381.135 103.352 381.135 75.792 347.428 75.792"></polygon>
                    <polygon fill="#1D5FD1" points="327.982 91.052 332.519 91.052 332.519 86.52 327.982 86.52"></polygon>
                    <polygon fill="#FFFFFF" points="355.206 91.052 359.744 91.052 359.744 86.52 355.206 86.52"></polygon>
                    <polygon fill="#FFFFFF" points="368.819 91.052 373.356 91.052 373.356 86.52 368.819 86.52"></polygon>
                    <polygon fill="#1D5FD1" points="137.525 19.19 142.063 19.19 142.063 14.659 137.525 14.659"></polygon>
                    <polygon fill="#FFFFFF" points="79.414 15.862 79.414 103.352 113.121 103.352 113.121 15.862 96.267 3.977"></polygon>
                    <polygon fill="#000000" points="113.121 15.861 96.267 3.977 129.81 3.93 146.828 15.861"></polygon>
                    <polygon fill="#4750DD" points="113.121 103.352 146.827 103.352 146.827 15.862 113.121 15.862"></polygon>
                    <polygon fill="#1D5FD1" points="93.674 31.121 98.212 31.121 98.212 26.59 93.674 26.59"></polygon>
                    <polygon fill="#1D5FD1" points="93.674 50.543 98.212 50.543 98.212 46.012 93.674 46.012"></polygon>
                    <polygon fill="#FFFFFF" points="120.899 31.121 125.437 31.121 125.437 26.59 120.899 26.59"></polygon>
                    <polygon fill="#FFFFFF" points="134.511 31.121 139.049 31.121 139.049 26.59 134.511 26.59"></polygon>
                    <polygon fill="#FFFFFF" points="120.899 50.543 125.437 50.543 125.437 46.012 120.899 46.012"></polygon>
                    <polygon fill="#FFFFFF" points="134.511 50.543 139.049 50.543 139.049 46.012 134.511 46.012"></polygon>
                    <polygon fill="#FFFFFF" points="129.974 75.792 129.974 103.353 163.681 103.353 163.681 75.792 146.828 63.909"></polygon>
                    <polygon fill="#000000" points="163.681 75.792 146.828 63.908 180.371 63.861 197.388 75.792"></polygon>
                    <polygon fill="#1D5FD1" points="163.681 103.352 197.388 103.352 197.388 75.792 163.681 75.792"></polygon>
                    <polygon fill="#1D5FD1" points="144.235 91.052 148.772 91.052 148.772 86.52 144.235 86.52"></polygon>
                    <polygon fill="#FFFFFF" points="171.46 91.052 175.997 91.052 175.997 86.52 171.46 86.52"></polygon>
                    <polygon fill="#FFFFFF" points="185.072 91.052 189.609 91.052 189.609 86.52 185.072 86.52"></polygon>
                    <polygon fill="#FFFFFF" points="464.586 57.664 464.586 103.353 498.292 103.353 498.292 57.664 481.438 45.781"></polygon>
                    <polygon fill="#000000" points="498.292 57.665 481.439 45.781 504.61 45.734 521.628 57.665"></polygon>
                    <polygon fill="#000000" points="493.107 47.029 498.293 47.029 498.293 41.849 493.107 41.849"></polygon>
                    <polygon fill="#1D5FD1" points="498.292 103.352 521.627 103.352 521.627 57.664 498.292 57.664"></polygon>
                    <polygon fill="#1D5FD1" points="478.846 72.925 483.384 72.925 483.384 68.393 478.846 68.393"></polygon>
                    <polygon fill="#1D5FD1" points="478.846 92.347 483.384 92.347 483.384 87.815 478.846 87.815"></polygon>
                    <polygon fill="#FFFFFF" points="507.692 72.925 512.229 72.925 512.229 68.393 507.692 68.393"></polygon>
                    <polygon fill="#FFFFFF" points="507.692 92.347 512.229 92.347 512.229 87.815 507.692 87.815"></polygon>
                    <polygon fill="#FFFFFF" points="239.737 15.862 239.737 103.352 273.444 103.352 273.444 15.862 256.591 3.977"></polygon>
                    <polygon fill="#000000" points="273.444 15.861 256.591 3.977 279.762 3.93 296.78 15.861"></polygon>
                    <polygon fill="#000000" points="268.259 5.225 273.444 5.225 273.444 0.046 268.259 0.046"></polygon>
                    <polygon fill="#1D5FD1" points="273.444 103.352 296.78 103.352 296.78 15.862 273.444 15.862"></polygon>
                    <polygon fill="#1D5FD1" points="253.998 31.121 258.536 31.121 258.536 26.59 253.998 26.59"></polygon>
                    <polygon fill="#FFFFFF" points="282.843 31.121 287.381 31.121 287.381 26.59 282.843 26.59"></polygon>
                    <polygon fill="#FFFFFF" points="282.843 50.543 287.381 50.543 287.381 46.012 282.843 46.012"></polygon>
                    <path d="M444.994102,84.865674 C444.994102,89.4764486 441.251982,93.214529 436.634777,93.214529 C432.018221,93.214529 428.276101,89.4764486 428.276101,84.865674 C428.276101,80.2548994 432.018221,76.5168185 436.634777,76.5168185 C441.251982,76.5168185 444.994102,80.2548994 444.994102,84.865674" fill="#6AE28C"></path>
                    <polygon fill="#6AE28C" points="436.11 103.352 437.16 103.352 437.16 84.865 436.11 84.865"></polygon>
                    <path d="M103.750138,84.865674 C103.750138,89.4764486 100.008018,93.214529 95.390813,93.214529 C90.7742565,93.214529 87.0321363,89.4764486 87.0321363,84.865674 C87.0321363,80.2548994 90.7742565,76.5168185 95.390813,76.5168185 C100.008018,76.5168185 103.750138,80.2548994 103.750138,84.865674" fill="#6AE28C"></path>
                    <polygon fill="#6AE28C" points="94.866 103.352 95.916 103.352 95.916 84.865 94.866 84.865"></polygon>
                    <polygon fill="#FFFFFF" points="240.385 103.353 206.679 103.353 206.679 51.191 223.532 39.307 240.385 51.191"></polygon>
                    <polygon fill="#000000" points="240.385 51.191 223.532 39.307 246.704 39.26 263.721 51.191"></polygon>
                    <polygon fill="#0496FF" points="240.386 103.352 263.721 103.352 263.721 51.191 240.386 51.191"></polygon>
                    <polygon fill="#1D5FD1" points="220.939 66.451 225.477 66.451 225.477 61.919 220.939 61.919"></polygon>
                    <polygon fill="#1D5FD1" points="220.939 85.873 225.477 85.873 225.477 81.341 220.939 81.341"></polygon>
                    <polygon fill="#FFFFFF" points="249.785 66.451 254.322 66.451 254.322 61.919 249.785 61.919"></polygon>
                    <polygon fill="#FFFFFF" points="249.785 85.873 254.322 85.873 254.322 81.341 249.785 81.341"></polygon>
                </g>
            </g>
    </g>
</svg>
