<svg xmlns="http://www.w3.org/2000/svg" width="24" height="24" viewBox="0 0 24 24"><g fill="none" fill-rule="evenodd"><circle cx="12" cy="12" r="12" fill="#4258ED"/><g fill="#FFF" transform="translate(3.22 3)"><polygon points="8.068 2.339 8.802 1.789 9.537 2.339 9.257 1.45 10.003 .9 9.084 .9 8.802 0 8.521 .901 7.602 .9 8.347 1.45"/><polygon points="4.267 3.387 5.002 2.837 5.735 3.387 5.456 2.498 6.202 1.948 5.282 1.948 5.001 1.046 4.72 1.949 3.801 1.948 4.546 2.498"/><polygon points="2.221 3.906 1.94 4.808 1.021 4.807 1.766 5.357 1.486 6.246 2.221 5.697 2.955 6.246 2.676 5.357 3.421 4.807 2.502 4.807"/><polygon points="1.201 9.591 1.935 10.141 1.656 9.252 2.401 8.702 1.482 8.702 1.201 7.801 .92 8.704 0 8.702 .746 9.252 .467 10.141"/><polygon points="2.502 12.608 2.221 11.707 1.94 12.61 1.021 12.608 1.766 13.159 1.487 14.048 2.221 13.497 2.955 14.048 2.676 13.159 3.421 12.608"/><polygon points="5.288 15.467 5.007 14.567 4.726 15.468 3.807 15.467 4.552 16.017 4.273 16.906 5.008 16.356 5.741 16.906 5.463 16.017 6.208 15.467"/><polygon points="9.084 16.503 8.803 15.602 8.522 16.504 7.602 16.503 8.348 17.053 8.069 17.942 8.803 17.393 9.537 17.942 9.258 17.053 10.004 16.503"/><polygon points="12.879 15.467 12.599 14.567 12.317 15.468 11.398 15.467 12.143 16.017 11.864 16.906 12.599 16.356 13.333 16.906 13.053 16.017 13.799 15.467"/><polygon points="15.666 12.608 15.385 11.707 15.103 12.61 14.184 12.608 14.93 13.159 14.65 14.048 15.385 13.497 16.119 14.048 15.839 13.159 16.585 12.608"/><polygon points="17.594 8.691 16.675 8.691 16.393 7.79 16.112 8.692 15.193 8.691 15.939 9.241 15.66 10.13 16.393 9.58 17.127 10.13 16.849 9.241"/><polygon points="14.65 6.235 15.385 5.685 16.119 6.235 15.839 5.346 16.585 4.797 15.666 4.797 15.385 3.896 15.102 4.798 14.184 4.797 14.93 5.346"/><polygon points="12.609 1.047 12.328 1.95 11.409 1.948 12.154 2.499 11.875 3.388 12.61 2.837 13.344 3.388 13.064 2.499 13.81 1.948 12.89 1.948"/></g></g></svg>